Coordinates
version=1
nRows=24
nColumns=38
inDegrees=no

Units are S.I. units (second, meters, Newtons, ...)
If the header above contains a line with 'inDegrees', this indicates whether rotational values are in degrees (yes) or radians (no).

endheader
time	pelvis_tilt	pelvis_list	pelvis_rotation	pelvis_tx	pelvis_ty	pelvis_tz	hip_flexion_r	hip_adduction_r	hip_rotation_r	knee_angle_r	ankle_angle_r	subtalar_angle_r	mtp_angle_r	hip_flexion_l	hip_adduction_l	hip_rotation_l	knee_angle_l	ankle_angle_l	subtalar_angle_l	mtp_angle_l	lumbar_extension	lumbar_bending	lumbar_rotation	arm_flex_r	arm_add_r	arm_rot_r	elbow_flex_r	pro_sup_r	wrist_flex_r	wrist_dev_r	arm_flex_l	arm_add_l	arm_rot_l	elbow_flex_l	pro_sup_l	wrist_flex_l	wrist_dev_l
1.675	0.194024	-0.10978	-0.0826117	0.749527	0.971329	-0.361	-0.0875227	0.186651	0.111822	-0.692586	0.436078	-0.0249142	-0.00296313	0.438655	-0.0329587	0.0547868	-1.86427	0.162373	-0.012644	-0.0101544	-0.522467	0.114247	0.160127	-0.106081	-0.518826	-0.0502154	2.03325	1.34128	-0.0106676	0.0134764	-0.550903	-0.352268	0.040769	2.07057	1.7745	0.0298793	-0.0388848
1.68333	0.191176	-0.0984931	-0.0836721	0.750729	0.976508	-0.360526	-0.139444	0.166274	0.116281	-0.637988	0.410995	-0.0249142	-0.00296313	0.462463	-0.0227052	0.0525271	-1.8134	0.168378	-0.012644	-0.0101544	-0.513883	0.0994345	0.172736	-0.0960421	-0.508055	-0.0306812	2.05127	1.34534	-0.0106676	0.0134764	-0.56321	-0.35677	0.043986	2.0857	1.77091	0.0298793	-0.0388848
1.69167	0.187957	-0.0865638	-0.0837628	0.752316	0.98205	-0.36002	-0.19129	0.145264	0.117912	-0.580545	0.37508	-0.0249142	-0.00296313	0.481547	-0.014269	0.0473328	-1.75459	0.173249	-0.012644	-0.0101544	-0.504044	0.0841271	0.183509	-0.0882983	-0.498266	-0.00901012	2.0697	1.34966	-0.0106676	0.0134764	-0.575525	-0.363109	0.047605	2.10173	1.76747	0.0298793	-0.0388848
1.7	0.184369	-0.0742864	-0.0827768	0.754238	0.987802	-0.359523	-0.24213	0.124108	0.115961	-0.522	0.328696	-0.0249142	-0.00296313	0.495953	-0.0073323	0.0398568	-1.68848	0.177051	-0.012644	-0.0101544	-0.493127	0.0687253	0.192501	-0.0827013	-0.489777	0.0145928	2.08808	1.35474	-0.0106676	0.0134764	-0.587509	-0.370967	0.0513409	2.11787	1.76419	0.0298793	-0.0388848
1.70833	0.180359	-0.062017	-0.0806767	0.75643	0.993605	-0.359078	-0.290893	0.103363	0.109922	-0.464393	0.273083	-0.0249142	-0.00296313	0.505874	-0.00142252	0.0310267	-1.61573	0.179918	-0.012644	-0.0101544	-0.481282	0.0536839	0.19987	-0.0791528	-0.482847	0.0397418	2.10609	1.36112	-0.0106676	0.0134764	-0.59887	-0.379968	0.0548869	2.13356	1.76107	0.0298793	-0.0388848
1.71667	0.17582	-0.0501913	-0.0775156	0.758813	0.999301	-0.358725	-0.336414	0.0836621	0.0996117	-0.410003	0.210316	-0.0249142	-0.00296313	0.511625	0.00393616	0.0219567	-1.53704	0.182056	-0.012644	-0.0101544	-0.468638	0.0395174	0.205895	-0.0775837	-0.477671	0.0659385	2.12361	1.36927	-0.0106676	0.0134764	-0.609361	-0.389724	0.0579414	2.14845	1.75817	0.0298793	-0.0388848
1.725	0.170625	-0.0393131	-0.0734497	0.7613	1.00474	-0.358495	-0.377507	0.0656761	0.0851888	-0.361242	0.14311	-0.0249142	-0.00296313	0.513609	0.00908167	0.0138048	-1.45313	0.183724	-0.012644	-0.0101544	-0.455314	0.0267784	0.210952	-0.0779225	-0.47437	0.0926548	2.1406	1.37944	-0.0106676	0.0134764	-0.618777	-0.399871	0.060229	2.16238	1.75567	0.0298793	-0.0388848
1.73333	0.164664	-0.0299268	-0.0687362	0.763803	1.0098	-0.358404	-0.41306	0.0500344	0.0671243	-0.320504	0.0745014	-0.0249142	-0.00296313	0.512283	0.0141163	0.00759238	-1.36481	0.185188	-0.012644	-0.0101544	-0.441441	0.016003	0.215481	-0.0800646	-0.472988	0.119408	2.15709	1.39159	-0.0106676	0.0134764	-0.626958	-0.410093	0.0615102	2.17534	1.75378	0.0298793	-0.0388848
1.74167	0.157885	-0.0225591	-0.0637155	0.766242	1.01436	-0.358443	-0.442151	0.03723	0.0461441	-0.28999	0.0074696	-0.0249142	-0.00296313	0.508108	0.0188704	0.00402056	-1.273	0.186677	-0.012644	-0.0101544	-0.427181	0.0076461	0.219926	-0.0838496	-0.473481	0.145816	2.17315	1.40533	-0.0106676	0.0134764	-0.633803	-0.420135	0.0615823	2.1874	1.75269	0.0298793	-0.0388848
1.75	0.150316	-0.0176472	-0.0587776	0.768548	1.01834	-0.358581	-0.464147	0.0275369	0.023147	-0.271533	-0.0554034	-0.0249142	-0.00296313	0.501518	0.0229349	0.00333408	-1.1788	0.188367	-0.012644	-0.0101544	-0.412761	0.00201874	0.224668	-0.089054	-0.475727	0.171617	2.1888	1.42001	-0.0106676	0.0134764	-0.639286	-0.4298	0.0602663	2.19873	1.75245	0.0298793	-0.0388848
1.75833	0.142096	-0.0154688	-0.0543137	0.770665	1.02169	-0.35877	-0.478776	0.020956	-0.000893574	-0.266467	-0.112164	-0.0249142	-0.00296313	0.492892	0.0257603	0.0052737	-1.0835	0.190369	-0.012644	-0.0101544	-0.398486	-0.000759549	0.229959	-0.0954022	-0.479531	0.196658	2.20399	1.43479	-0.0106676	0.0134764	-0.643464	-0.438945	0.0573929	2.20952	1.75305	0.0298793	-0.0388848
1.76667	0.133492	-0.0160903	-0.0506593	0.772558	1.02437	-0.35896	-0.48616	0.0171971	-0.0250363	-0.275541	-0.161563	-0.0249142	-0.00296313	0.482543	0.0268004	0.00913737	-0.988629	0.192755	-0.012644	-0.0101544	-0.384741	-0.000789609	0.235875	-0.102591	-0.484628	0.220859	2.2186	1.44874	-0.0106676	0.0134764	-0.646479	-0.447479	0.052793	2.21999	1.75432	0.0298793	-0.0388848
1.775	0.124902	-0.0193398	-0.0480413	0.774211	1.0264	-0.3591	-0.486799	0.0156978	-0.0484735	-0.298895	-0.203002	-0.0249142	-0.00296313	0.47071	0.0256698	0.0139415	-0.895913	0.195564	-0.012644	-0.0101544	-0.371993	0.00160029	0.242277	-0.110322	-0.490696	0.24416	2.23241	1.46097	-0.0106676	0.0134764	-0.648528	-0.455372	0.0462985	2.23033	1.75597	0.0298793	-0.0388848
1.78333	0.11683	-0.0248089	-0.0465385	0.775622	1.02776	-0.359158	-0.481525	0.0156753	-0.0706143	-0.336102	-0.236391	-0.0249142	-0.00296313	0.457568	0.0222727	0.018644	-0.807216	0.198803	-0.012644	-0.0101544	-0.360762	0.00587283	0.248825	-0.118338	-0.497364	0.266475	2.24513	1.47071	-0.0106676	0.0134764	-0.649828	-0.462665	0.0377547	2.24074	1.75761	0.0298793	-0.0388848
1.79167	0.109847	-0.0318817	-0.046062	0.776793	1.02849	-0.359118	-0.471423	0.016201	-0.091143	-0.38623	-0.262018	-0.0249142	-0.00296313	0.443229	0.0168724	0.0223734	-0.724437	0.202406	-0.012644	-0.0101544	-0.351589	0.0113286	0.254998	-0.126443	-0.504231	0.287657	2.25644	1.47736	-0.0106676	0.0134764	-0.650567	-0.469488	0.0270409	2.25135	1.75878	0.0298793	-0.0388848
1.8	0.104535	-0.039807	-0.046358	0.777745	1.02861	-0.358989	-0.457735	0.0162976	-0.110028	-0.447923	-0.280468	-0.0249142	-0.00296313	0.427767	0.0100768	0.0246057	-0.649392	0.206176	-0.012644	-0.0101544	-0.344987	0.0171788	0.260156	-0.134524	-0.510895	0.30749	2.266	1.48062	-0.0106676	0.0134764	-0.650866	-0.476057	0.0140934	2.26224	1.75908	0.0298793	-0.0388848
1.80833	0.101416	-0.0477831	-0.0470364	0.778501	1.02814	-0.358802	-0.441748	0.0150452	-0.127486	-0.51951	-0.292581	-0.0249142	-0.00296313	0.411259	0.00274626	0.0252473	-0.583703	0.209717	-0.012644	-0.0101544	-0.341379	0.0226431	0.26361	-0.142551	-0.516982	0.325697	2.27352	1.48046	-0.0106676	0.0134764	-0.650755	-0.48267	-0.00107958	2.27341	1.75816	0.0298793	-0.0388848
1.81667	0.100883	-0.0550519	-0.0476175	0.779081	1.02712	-0.358605	-0.424683	0.0116798	-0.143904	-0.59911	-0.299419	-0.0249142	-0.00296313	0.393829	-0.00414529	0.0246108	-0.528743	0.212409	-0.012644	-0.0101544	-0.341052	0.0270465	0.264695	-0.150563	-0.522186	0.341975	2.27876	1.4772	-0.0106676	0.0134764	-0.650169	-0.489671	-0.0183948	2.28481	1.75581	0.0298793	-0.0388848
1.825	0.103153	-0.0609814	-0.0475934	0.779497	1.02554	-0.358455	-0.40759	0.00567187	-0.159724	-0.684767	-0.302184	-0.0249142	-0.00296313	0.375714	-0.00965661	0.0233052	-0.485628	0.213489	-0.012644	-0.0101544	-0.344116	0.0298962	0.262842	-0.15866	-0.526284	0.356019	2.28152	1.47149	-0.0106676	0.0134764	-0.648964	-0.497415	-0.0377016	2.29631	1.75189	0.0298793	-0.0388848
1.83333	0.108219	-0.0651169	-0.046494	0.779756	1.02341	-0.35841	-0.391241	-0.00323148	-0.175323	-0.774582	-0.30208	-0.0249142	-0.00296313	0.357308	-0.0129955	0.0220844	-0.455255	0.212255	-0.012644	-0.0101544	-0.350482	0.0309202	0.257634	-0.166978	-0.529147	0.367559	2.28169	1.46421	-0.0106676	0.0134764	-0.646928	-0.50622	-0.0587901	2.30774	1.74632	0.0298793	-0.0388848
1.84167	0.11585	-0.0671998	-0.0439491	0.779853	1.02072	-0.358517	-0.37605	-0.0150044	-0.190889	-0.866829	-0.300148	-0.0249142	-0.00296313	0.339193	-0.0135845	0.0217002	-0.438339	0.208403	-0.012644	-0.0101544	-0.35986	0.0300552	0.248852	-0.175669	-0.530734	0.376375	2.27919	1.45635	-0.0106676	0.0134764	-0.643796	-0.516341	-0.0813878	2.31887	1.739	0.0298793	-0.0388848
1.85	0.125603	-0.0671523	-0.039733	0.779781	1.01743	-0.358803	-0.36204	-0.029359	-0.206345	-0.960039	-0.297134	-0.0249142	-0.00296313	0.322101	-0.011081	0.0228047	-0.435385	0.202391	-0.012644	-0.0101544	-0.371781	0.0274094	0.236484	-0.184885	-0.531062	0.38231	2.27395	1.44885	-0.0106676	0.0134764	-0.639241	-0.527945	-0.105145	2.32942	1.72986	0.0298793	-0.0388848
1.85833	0.13686	-0.0650275	-0.0337916	0.779515	1.01353	-0.359275	-0.348839	-0.0457962	-0.221331	-1.05303	-0.293423	-0.0249142	-0.00296313	0.306819	-0.00536206	0.0258811	-0.446569	0.195652	-0.012644	-0.0101544	-0.385646	0.0231982	0.22072	-0.194748	-0.530171	0.385276	2.26586	1.4425	-0.0106676	0.0134764	-0.632868	-0.541101	-0.129612	2.33904	1.71897	0.0298793	-0.0388848
1.86667	0.148898	-0.0609494	-0.0262368	0.779027	1.00903	-0.359919	-0.335718	-0.0636725	-0.235251	-1.1449	-0.289074	-0.0249142	-0.00296313	0.294036	0.00350031	0.0311892	-0.471497	0.190507	-0.012644	-0.0101544	-0.400774	0.0176751	0.20191	-0.205325	-0.528088	0.385266	2.25473	1.43779	-0.0106676	0.0134764	-0.624192	-0.555776	-0.154217	2.34728	1.70662	0.0298793	-0.0388848
